#!OML:ASF H:\Dans Jumps\Project 1\Capture day 1\Session 1\subject.ASF
:FULLY-SPECIFIED
:DEGREES
81
root 0.426382 14.5832 4.46992 1.47097 -3.54709 -2.22167
lowerback 14.2336 0.1971 0.947686
upperback 9.42492 0.339275 1.95317
thorax 1.96078 0.1446 1.46511
lowerneck -11.8814 -0.156453 -2.12798
upperneck -7.83943 0.0924153 2.11173
head -0.482801 0.104677 1.0088
rclavicle -4.17448e-015 6.36111e-015
rhumerus 41.3435 7.20377 -31.8592
rradius 67.9569
rwrist 21.8022
rhand -23.8827 -37.8138
rfingers 7.12502
rthumb 2.59061 -67.7778
lclavicle -4.17448e-015 6.36111e-015
lhumerus 44.4856 -6.79163 36.1903
lradius 66.0482
lwrist 5.99061
lhand -31.8719 -2.90104
lfingers 7.12502
lthumb -5.12501 27.017
rfemur -43.1962 -11.2226 14.9474
rtibia 77.5911
rfoot -31.6331 -5.78748
rtoes -12.6075
lfemur -40.4023 16.8075 -11.8433
ltibia 77.681
lfoot -30.4235 14.3721
ltoes -13.0449
82
root 0.425184 14.5852 4.46991 1.47453 -3.53468 -2.21365
lowerback 14.2263 0.193603 0.934371
upperback 9.43224 0.33295 1.95775
thorax 1.97248 0.140702 1.47823
lowerneck -11.9117 -0.162026 -2.15024
upperneck -7.82552 0.0884285 2.12843
head -0.473469 0.103469 1.01784
rclavicle -3.18055e-015 -1.11319e-014
rhumerus 41.3593 7.19206 -31.8495
rradius 67.9519
rwrist 21.8004
rhand -23.8666 -37.773
rfingers 7.12502
rthumb 2.60619 -67.7368
lclavicle -3.18055e-015 -1.11319e-014
lhumerus 44.5 -6.78127 36.1944
lradius 66.0316
lwrist 5.99458
lhand -31.8703 -2.9375
lfingers 7.12502
lthumb -5.12349 26.9806
rfemur -43.1895 -11.2348 14.9463
rtibia 77.5781
rfoot -31.6203 -5.81654
rtoes -12.641
lfemur -40.4093 16.7799 -11.845
ltibia 77.6771
lfoot -30.4518 14.2784
ltoes -12.8367
83
root 0.424353 14.5853 4.47029 1.4766 -3.5279 -2.24204
lowerback 14.2475 0.191395 0.976346
upperback 9.40938 0.335694 1.95972
thorax 1.93709 0.143957 1.45613
lowerneck -11.8826 -0.158491 -2.16014
upperneck -7.81064 0.094932 2.1676
head -0.473416 0.10706 1.03207
rclavicle 0 2.50469e-014
rhumerus 41.3242 7.20987 -31.8555
rradius 67.9509
rwrist 21.7979
rhand -23.8297 -37.7511
rfingers 7.12502
rthumb 2.6418 -67.7145
lclavicle 0 2.50469e-014
lhumerus 44.4962 -6.8145 36.1884
lradius 66.0254
lwrist 6.03518
lhand -31.8829 -2.95642
lfingers 7.12502
lthumb -5.13566 26.9613
rfemur -43.1843 -11.2324 14.9827
rtibia 77.5729
rfoot -31.6472 -5.82771
rtoes -12.7254
lfemur -40.4082 16.7829 -11.8111
ltibia 77.6777
lfoot -30.4386 14.307
ltoes -12.8702
84
root 0.422979 14.586 4.47044 1.49198 -3.52155 -2.21736
lowerback 14.2223 0.192133 0.957774
upperback 9.42287 0.333823 1.94879
thorax 1.96475 0.142521 1.45553
lowerneck -11.959 -0.158984 -2.1935
upperneck -7.76611 0.100455 2.21234
head -0.447239 0.111342 1.05236
rclavicle 1.19271e-015 3.97569e-015
rhumerus 41.3101 7.16866 -31.8961
rradius 67.9473
rwrist 21.8292
rhand -23.8396 -37.692
rfingers 7.12502
rthumb 2.63231 -67.6555
lclavicle 1.19271e-015 3.97569e-015
lhumerus 44.5119 -6.78562 36.1895
lradius 66.0111
lwrist 6.01404
lhand -31.8499 -2.94607
lfingers 7.12502
lthumb -5.10383 26.9725
rfemur -43.1997 -11.2385 14.9646
rtibia 77.5686
rfoot -31.62 -5.84459
rtoes -12.656
lfemur -40.4249 16.7641 -11.8362
ltibia 77.6695
lfoot -30.442 14.2877
ltoes -12.8045
85
root 0.421499 14.5857 4.46967 1.50535 -3.51798 -2.24507
lowerback 14.2421 0.19518 0.990267
upperback 9.4029 0.342315 1.95346
thorax 1.93296 0.148134 1.44091
lowerneck -11.9633 -0.153497 -2.22967
upperneck -7.72798 0.113344 2.26374
head -0.434638 0.119097 1.0753
rclavicle 8.15017e-015 -2.22639e-014
rhumerus 41.2895 7.17451 -31.8954
rradius 67.9384
rwrist 21.8138
rhand -23.8387 -37.7405
rfingers 7.12502
rthumb 2.63315 -67.704
lclavicle 8.15017e-015 -2.22639e-014
lhumerus 44.5065 -6.81451 36.199
lradius 66.004
lwrist 6.01319
lhand -31.8821 -2.99456
lfingers 7.12502
lthumb -5.13484 26.9232
rfemur -43.2173 -11.229 15.0055
rtibia 77.5703
rfoot -31.644 -5.83684
rtoes -12.7171
lfemur -40.442 16.7666 -11.8025
ltibia 77.6686
lfoot -30.4363 14.2789
ltoes -12.8492
86
root 0.42044 14.587 4.47104 1.49898 -3.50199 -2.20487
lowerback 14.2286 0.189462 0.945594
upperback 9.40654 0.329639 1.94916
thorax 1.94392 0.139968 1.46315
lowerneck -11.961 -0.147463 -2.2512
upperneck -7.71441 0.12465 2.29487
head -0.430876 0.125473 1.08923
rclavicle 2.18663e-015 0
rhumerus 41.3282 7.19296 -31.865
rradius 67.9325
rwrist 21.8059
rhand -23.8451 -37.7651
rfingers 7.12502
rthumb 2.62699 -67.7286
lclavicle 2.18663e-015 0
lhumerus 44.4817 -6.79434 36.2242
lradius 65.9963
lwrist 6.01055
lhand -31.861 -3.01227
lfingers 7.12502
lthumb -5.11449 26.906
rfemur -43.2003 -11.2594 14.9622
rtibia 77.5681
rfoot -31.6533 -5.84094
rtoes -12.7691
lfemur -40.4233 16.7394 -11.8441
ltibia 77.6573
lfoot -30.4519 14.2843
ltoes -12.8256
87
root 0.419469 14.5876 4.47037 1.50914 -3.49444 -2.2127
lowerback 14.2281 0.191671 0.974096
upperback 9.40453 0.33576 1.9413
thorax 1.94218 0.144569 1.43812
lowerneck -11.9526 -0.148392 -2.26265
upperneck -7.71793 0.125641 2.32429
head -0.433246 0.126409 1.10054
rclavicle -1.19271e-015 -1.70955e-014
rhumerus 41.3086 7.17017 -31.8821
rradius 67.9233
rwrist 21.8119
rhand -23.7917 -37.7163
rfingers 7.12502
rthumb 2.6785 -67.6792
lclavicle -1.19271e-015 -1.70955e-014
lhumerus 44.5019 -6.80666 36.2164
lradius 65.9941
lwrist 6.03554
lhand -31.8758 -3.02398
lfingers 7.12502
lthumb -5.12877 26.8939
rfemur -43.2142 -11.2661 14.9779
rtibia 77.567
rfoot -31.6221 -5.83306
rtoes -12.6065
lfemur -40.4354 16.7217 -11.834
ltibia 77.6521
lfoot -30.429 14.2905
ltoes -12.7969
